<?xml version="1.0"?>
<svg xmlns="http://www.w3.org/2000/svg" viewBox="0 0 512 512" width="512" height="512"><g id="Out_line" data-name="Out line"><path d="M407.45925,24.45361A23.7173,23.7173,0,0,0,389.28346,16H253.47292a23.94016,23.94016,0,0,0-23.64356,19.9209L193.26442,248H128.00026a32.03635,32.03635,0,0,0-32,32V488a8.00008,8.00008,0,0,0,8,8h24a7.99966,7.99966,0,0,0,7.93262-6.96533L159.02443,312h72.97583V488a8.00008,8.00008,0,0,0,8,8h24a7.99966,7.99966,0,0,0,7.93262-6.96533L295.02419,312h17.95215l23.0913,177.03467A7.99967,7.99967,0,0,0,344.00026,496h24a8.00008,8.00008,0,0,0,8-8l.00293-231.31494L412.70632,43.80957v-.00146A23.72447,23.72447,0,0,0,407.45925,24.45361ZM245.59694,38.63721A7.97543,7.97543,0,0,1,253.47292,32H366.81276c-.12109.352-.21728.71631-.32226,1.07642-.063.21691-.13672.42871-.19385.64843-.17188.65723-.3208,1.32495-.438,2.00562L329.26393,248H209.50026ZM112.00026,280a16.01833,16.01833,0,0,1,16-16h112a16.01833,16.01833,0,0,1,16,16v16h-144Zm8.97559,200h-8.97559V312h30.88867Zm136,0h-8.97559V312h30.88867Zm103.02441,0h-8.97558L329.11159,312h30.88867ZM396.93874,41.09229v-.00147L360.1194,254.64062A8.02987,8.02987,0,0,0,360.00319,256v40H272.00026V280a31.79423,31.79423,0,0,0-4.30517-16h68.3081a7.99379,7.99379,0,0,0,7.88379-6.64111l37.73926-218.9126A7.75055,7.75055,0,0,1,389.28346,32a7.77073,7.77073,0,0,1,7.65528,9.09229Z"/></g></svg>
