<svg height="512pt" viewBox="0 -108 512 512" width="512pt" xmlns="http://www.w3.org/2000/svg"><path d="m56 119.96875c-4.425781 0-8-3.578125-8-8 0-8.824219-7.175781-16-16-16s-16 7.175781-16 16c0 4.421875-3.574219 8-8 8s-8-3.578125-8-8c0-17.648438 14.351562-32 32-32s32 14.351562 32 32c0 4.421875-3.574219 8-8 8zm0 0"/><path d="m32 263.902344c-17.648438 0-32-14.351563-32-32 0-4.421875 3.574219-8 8-8s8 3.578125 8 8c0 8.824218 7.175781 16 16 16 4.425781 0 8 3.578125 8 8 0 4.425781-3.574219 8-8 8zm0 0"/><path d="m8 239.902344c-4.425781 0-8-3.574219-8-8v-119.933594c0-4.425781 3.574219-8 8-8s8 3.574219 8 8v119.933594c0 4.425781-3.574219 8-8 8zm0 0"/><path d="m504 119.96875c-4.425781 0-8-3.578125-8-8 0-8.824219-7.175781-16-16-16s-16 7.175781-16 16c0 4.421875-3.574219 8-8 8s-8-3.578125-8-8c0-17.648438 14.351562-32 32-32s32 14.351562 32 32c0 4.421875-3.574219 8-8 8zm0 0"/><path d="m480 263.902344c-4.425781 0-8-3.574219-8-8 0-4.421875 3.574219-8 8-8 8.824219 0 16-7.175782 16-16 0-4.421875 3.574219-8 8-8s8 3.578125 8 8c0 17.648437-14.351562 32-32 32zm0 0"/><path d="m504 239.902344c-4.425781 0-8-3.574219-8-8v-119.933594c0-4.425781 3.574219-8 8-8s8 3.574219 8 8v119.933594c0 4.425781-3.574219 8-8 8zm0 0"/><path d="m480 263.902344h-448c-4.425781 0-8-3.574219-8-8 0-4.421875 3.574219-8 8-8h448c4.425781 0 8 3.578125 8 8 0 4.425781-3.574219 8-8 8zm0 0"/><path d="m456 295.9375c-4.425781 0-8-3.578125-8-8v-175.96875c0-4.425781 3.574219-8 8-8s8 3.574219 8 8v175.96875c0 4.421875-3.574219 8-8 8zm0 0"/><path d="m56 295.921875c-4.425781 0-8-3.578125-8-8v-175.96875c0-4.425781 3.574219-8 8-8s8 3.574219 8 8v175.96875c0 4.421875-3.574219 8-8 8zm0 0"/><path d="m56 191.902344c-4.425781 0-8-3.574219-8-8 0-17.644532 14.351562-32 32-32 4.425781 0 8 3.578125 8 8 0 4.425781-3.574219 8-8 8-8.824219 0-16 7.175781-16 16 0 4.425781-3.574219 8-8 8zm0 0"/><path d="m32 40c-4.425781 0-8-3.574219-8-8 0-17.648438 14.351562-32 32-32 4.425781 0 8 3.574219 8 8s-3.574219 8-8 8c-8.824219 0-16 7.175781-16 16 0 4.425781-3.574219 8-8 8zm0 0"/><path d="m480.015625 40c-4.421875 0-8-3.574219-8-8 0-8.824219-7.175781-16-16-16-4.421875 0-8-3.574219-8-8s3.578125-8 8-8c17.648437 0 32 14.351562 32 32 0 4.425781-3.574219 8-8 8zm0 0"/><path d="m256 40c-4.425781 0-8-3.574219-8-8 0-17.648438 14.351562-32 32-32 4.425781 0 8 3.574219 8 8s-3.574219 8-8 8c-8.824219 0-16 7.175781-16 16 0 4.425781-3.574219 8-8 8zm0 0"/><path d="m256 40c-4.425781 0-8-3.574219-8-8 0-8.824219-7.175781-16-16-16-4.425781 0-8-3.574219-8-8s3.574219-8 8-8c17.648438 0 32 14.351562 32 32 0 4.425781-3.574219 8-8 8zm0 0"/><path d="m456 191.902344c-4.425781 0-8-3.574219-8-8 0-8.824219-7.175781-16-16-16-4.425781 0-8-3.574219-8-8 0-4.421875 3.574219-8 8-8 17.648438 0 32 14.355468 32 32 0 4.425781-3.574219 8-8 8zm0 0"/><path d="m432.070312 167.902344h-352.070312c-4.425781 0-8-3.574219-8-8 0-4.421875 3.574219-8 8-8h352.070312c4.425782 0 8 3.578125 8 8 0 4.425781-3.574218 8-8 8zm0 0"/><path d="m456 223.902344h-400c-4.425781 0-8-3.574219-8-8 0-4.421875 3.574219-8 8-8h400c4.425781 0 8 3.578125 8 8 0 4.425781-3.574219 8-8 8zm0 0"/><path d="m32 95.96875c-4.425781 0-8-3.578125-8-8v-55.96875c0-4.425781 3.574219-8 8-8s8 3.574219 8 8v55.96875c0 4.421875-3.574219 8-8 8zm0 0"/><path d="m480 95.96875c-4.425781 0-8-3.585938-8-8l.015625-55.96875c0-4.425781 3.585937-8 8-8 4.425781 0 8 3.585938 8 8l-.015625 55.96875c0 4.421875-3.585938 8-8 8zm0 0"/><path d="m231.871094 16h-175.871094c-4.425781 0-8-3.574219-8-8s3.574219-8 8-8h175.871094c4.425781 0 8 3.574219 8 8s-3.574219 8-8 8zm0 0"/><path d="m456.015625 16h-176.144531c-4.421875 0-8-3.574219-8-8s3.578125-8 8-8h176.144531c4.425781 0 8 3.574219 8 8s-3.574219 8-8 8zm0 0"/><path d="m256 167.902344c-4.425781 0-8-3.574219-8-8v-127.902344c0-4.425781 3.574219-8 8-8s8 3.574219 8 8v127.902344c0 4.425781-3.574219 8-8 8zm0 0"/><path d="m415.960938 295.9375c-4.425782 0-8-3.578125-8-8v-32.035156c0-4.421875 3.574218-8 8-8 4.421874 0 8 3.578125 8 8v32.035156c0 4.421875-3.578126 8-8 8zm0 0"/><path d="m456 295.9375h-40.039062c-4.425782 0-8-3.578125-8-8 0-4.425781 3.574218-8 8-8h40.039062c4.425781 0 8 3.574219 8 8 0 4.421875-3.574219 8-8 8zm0 0"/><path d="m96.03125 295.9375c-4.421875 0-8-3.578125-8-8v-32.035156c0-4.421875 3.578125-8 8-8 4.425781 0 8 3.578125 8 8v32.035156c0 4.421875-3.574219 8-8 8zm0 0"/><path d="m96.03125 295.9375h-40.039062c-4.425782 0-8-3.578125-8-8 0-4.425781 3.574218-8 8-8h40.039062c4.425781 0 8 3.574219 8 8 0 4.421875-3.574219 8-8 8zm0 0"/></svg>