<?xml version="1.0" encoding="iso-8859-1"?>
<!-- Generator: Adobe Illustrator 19.0.0, SVG Export Plug-In . SVG Version: 6.00 Build 0)  -->
<svg version="1.1" id="Capa_1" xmlns="http://www.w3.org/2000/svg" xmlns:xlink="http://www.w3.org/1999/xlink" x="0px" y="0px"
	 viewBox="0 0 508 508" style="enable-background:new 0 0 508 508;" xml:space="preserve">
<g>
	<g>
		<path d="M294.1,131.1c-1.2-5.9-3.8-11.2-7.2-15.9l71-68.6c3.3,1.6,6.9,2.6,10.7,2.6c13.6,0,24.6-11,24.6-24.6
			C393.2,11,382.3,0,368.7,0s-24.6,11-24.6,24.6c0,3.7,0.9,7.2,2.4,10.3l-71.7,69.2c-6.1-3.6-13.2-5.9-20.8-5.9
			c-5.5,0-10.7,1.1-15.4,3.1l-68.9-66.5c1.5-3.2,2.4-6.6,2.4-10.3C172.1,11,161,0,147.5,0c-13.6,0-24.6,11-24.6,24.6
			c0,13.6,11,24.6,24.6,24.6c3.9,0,7.5-1,10.7-2.6l66.5,64.2c-5.4,5.5-9.2,12.5-10.8,20.3H0v360.5h32.8V508h16.4v-16.4h409.7V508
			h16.4v-16.4H508V131.1H294.1z M368.7,16.4c4.5,0,8.2,3.7,8.2,8.2s-3.7,8.2-8.2,8.2s-8.2-3.7-8.2-8.2S364.2,16.4,368.7,16.4z
			 M147.5,32.8c-4.5,0-8.2-3.7-8.2-8.2s3.7-8.2,8.2-8.2s8.2,3.7,8.2,8.2S152,32.8,147.5,32.8z M254,114.7c10.7,0,19.7,6.9,23.1,16.4
			H231C234.3,121.6,243.3,114.7,254,114.7z M491.6,475.2H16.4V147.5h475.2V475.2z"/>
	</g>
</g>
<g>
	<g>
		<path d="M352.3,180.2H90.1c-22.6,0-41,18.4-41,41v180.2c0.1,22.7,18.4,41,41,41h262.2c22.6,0,41-18.4,41-41V221.2
			C393.3,198.6,374.9,180.2,352.3,180.2z M376.9,401.4c0,13.6-11,24.6-24.6,24.6H90.1c-13.6,0-24.6-11-24.6-24.6V221.2
			c0-13.6,11-24.6,24.6-24.6h262.2c13.6,0,24.6,11,24.6,24.6V401.4z"/>
	</g>
</g>
<g>
	<g>
		<path d="M442.5,196.6c-18.1,0-32.8,14.7-32.8,32.8c0,18.1,14.7,32.8,32.8,32.8c18.1,0,32.8-14.7,32.8-32.8
			C475.3,211.3,460.6,196.6,442.5,196.6z M442.5,245.8c-9,0-16.4-7.3-16.4-16.4c0-9,7.3-16.4,16.4-16.4c9,0,16.4,7.3,16.4,16.4
			C458.9,238.4,451.6,245.8,442.5,245.8z"/>
	</g>
</g>
<g>
	<g>
		<path d="M409.7,278.6v81.9h65.5v-81.9H409.7z M458.8,344.1H426V295h32.8V344.1z"/>
	</g>
</g>
<g>
	<g>
		<rect x="417.9" y="376.9" width="16.4" height="16.4"/>
	</g>
</g>
<g>
	<g>
		<rect x="450.6" y="376.9" width="16.4" height="16.4"/>
	</g>
</g>
<g>
	<g>
		<rect x="417.9" y="409.7" width="16.4" height="16.4"/>
	</g>
</g>
<g>
	<g>
		<rect x="450.6" y="409.7" width="16.4" height="16.4"/>
	</g>
</g>
<g>
</g>
<g>
</g>
<g>
</g>
<g>
</g>
<g>
</g>
<g>
</g>
<g>
</g>
<g>
</g>
<g>
</g>
<g>
</g>
<g>
</g>
<g>
</g>
<g>
</g>
<g>
</g>
<g>
</g>
</svg>
