<svg id="Layer_1" height="512" viewBox="0 0 512 512" width="512" xmlns="http://www.w3.org/2000/svg" data-name="Layer 1"><path d="m390.176 491.3h16.282a7.993 7.993 0 0 0 7.75-6.021l8.656-33.932a26.041 26.041 0 0 0 19.8-25.248v-379.399a26.029 26.029 0 0 0 -26-26h-321.331a26.029 26.029 0 0 0 -26 26v379.4a26.041 26.041 0 0 0 19.8 25.248l8.656 33.929a8 8 0 0 0 7.752 6.024h16.28a8 8 0 0 0 7.752-6.023l8.463-33.178h235.925l8.464 33.179a7.994 7.994 0 0 0 7.751 6.021zm-308.843-206.311h349.334v71.554h-349.334zm349.334-238.289v226.289h-168.667v-240.289h154.667a14.015 14.015 0 0 1 14 14zm-335.334-14h154.667v240.289h-168.667v-226.289a14.015 14.015 0 0 1 14-14zm-14 393.4v-57.557h349.334v57.557a14.015 14.015 0 0 1 -14 14h-321.334a14.015 14.015 0 0 1 -14-14zm37.383 53.2h-10.065l-6.938-27.2h23.942zm291.572-27.2-6.939 27.2h-10.065l-6.939-27.2z"/><path d="m269.518 316.092h-27.036a6 6 0 1 0 0 12h27.036a6 6 0 0 0 0-12z"/><path d="m242.482 410.092h27.036a6 6 0 0 0 0-12h-27.036a6 6 0 1 0 0 12z"/><path d="m225.074 207.248a6 6 0 0 0 6-6v-85.88a6 6 0 0 0 -12 0v85.88a6 6 0 0 0 6 6z"/><path d="m287.927 207.248a6 6 0 0 0 6-6v-85.88a6 6 0 0 0 -12 0v85.88a6 6 0 0 0 6 6z"/></svg>