<?xml version="1.0"?>
<svg xmlns="http://www.w3.org/2000/svg" width="512" height="512" viewBox="0 0 128 128"><g><path d="M126.25,16A1.75,1.75,0,0,0,128,14.25V1.751A1.75,1.75,0,0,0,126.25,0H1.75A1.751,1.751,0,0,0,0,1.751v12.5A1.751,1.751,0,0,0,1.75,16H8.583v96H1.75A1.751,1.751,0,0,0,0,113.752v12.5A1.751,1.751,0,0,0,1.75,128h124.5a1.75,1.75,0,0,0,1.75-1.75v-12.5a1.75,1.75,0,0,0-1.75-1.75h-6.833V16ZM3.5,3.5h121v9H3.5Zm121,121H3.5v-9h121ZM115.917,112H12.083V16H115.917Z"/><path d="M18.583,103.752a1.751,1.751,0,0,0,1.75,1.75h87.334a1.75,1.75,0,0,0,1.75-1.75V24.25a1.75,1.75,0,0,0-1.75-1.75H20.333a1.751,1.751,0,0,0-1.75,1.75v79.5Zm3.5-34H58.25V102H22.083ZM69.75,102V69.751h36.167V102Zm36.167-43.751H69.75V26h36.167ZM66.25,26V60A1.75,1.75,0,0,0,68,61.751h37.917v4.5H68A1.75,1.75,0,0,0,66.25,68v34h-4.5V68A1.751,1.751,0,0,0,60,66.251H22.083v-4.5H60A1.751,1.751,0,0,0,61.75,60V26Zm-8,0V58.251H22.083V26Z"/></g></svg>
