<?xml version="1.0"?>
<svg xmlns="http://www.w3.org/2000/svg" id="Outline" viewBox="0 0 512 512" width="512" height="512"><path d="M117.6,400a8,8,0,0,0,16,0c0-1.785.292-2.271,1.26-3.885a22.5,22.5,0,0,0,0-24.232,6.616,6.616,0,0,1,0-7.768A21.431,21.431,0,0,0,138.4,352a8,8,0,0,0-16,0c0,1.784-.292,2.27-1.26,3.883a22.5,22.5,0,0,0,0,24.232,6.618,6.618,0,0,1,0,7.769A21.432,21.432,0,0,0,117.6,400Z"/><path d="M245.6,400a8,8,0,0,0,16,0c0-1.785.292-2.271,1.26-3.885a22.5,22.5,0,0,0,0-24.232,6.616,6.616,0,0,1,0-7.768A21.431,21.431,0,0,0,266.4,352a8,8,0,0,0-16,0c0,1.784-.292,2.27-1.26,3.883a22.5,22.5,0,0,0,0,24.232,6.618,6.618,0,0,1,0,7.769A21.432,21.432,0,0,0,245.6,400Z"/><path d="M181.6,400a8,8,0,0,0,16,0c0-1.785.292-2.271,1.26-3.885a22.5,22.5,0,0,0,0-24.232,6.616,6.616,0,0,1,0-7.768A21.431,21.431,0,0,0,202.4,352a8,8,0,0,0-16,0c0,1.784-.292,2.27-1.26,3.883a22.5,22.5,0,0,0,0,24.232,6.618,6.618,0,0,1,0,7.769A21.432,21.432,0,0,0,181.6,400Z"/><path d="M309.6,400a8,8,0,0,0,16,0c0-1.785.292-2.271,1.26-3.885a22.5,22.5,0,0,0,0-24.232,6.616,6.616,0,0,1,0-7.768A21.431,21.431,0,0,0,330.4,352a8,8,0,0,0-16,0c0,1.784-.292,2.27-1.26,3.883a22.5,22.5,0,0,0,0,24.232,6.618,6.618,0,0,1,0,7.769A21.432,21.432,0,0,0,309.6,400Z"/><path d="M373.6,400a8,8,0,0,0,16,0c0-1.785.292-2.271,1.26-3.885a22.5,22.5,0,0,0,0-24.232,6.616,6.616,0,0,1,0-7.768A21.431,21.431,0,0,0,394.4,352a8,8,0,0,0-16,0c0,1.784-.292,2.27-1.26,3.883a22.5,22.5,0,0,0,0,24.232,6.618,6.618,0,0,1,0,7.769A21.432,21.432,0,0,0,373.6,400Z"/><path d="M312,152H200a8,8,0,0,0-8,8v32a8,8,0,0,0,8,8H312a8,8,0,0,0,8-8V160A8,8,0,0,0,312,152Zm-8,32H208V168h96Z"/><path d="M16.239,257.94l16,64A8,8,0,0,0,40,328H472a8,8,0,0,0,7.761-6.06l16-64-.007,0A7.983,7.983,0,0,0,496,256V160a40.045,40.045,0,0,0-40-40H56a40.045,40.045,0,0,0-40,40v96a7.983,7.983,0,0,0,.246,1.938ZM432,312H80V296H432Zm33.754,0H448V288a8,8,0,0,0-8-8H72a8,8,0,0,0-8,8v24H46.246l-12-48H477.754ZM32,160a24.028,24.028,0,0,1,24-24H456a24.028,24.028,0,0,1,24,24v88H32Z"/></svg>
