<?xml version="1.0"?>
<svg xmlns="http://www.w3.org/2000/svg" height="512px" viewBox="0 0 128 128" width="512px" class=""><g><g><path d="m92.878 103.417 3 18.083h-5.128-5.128l3-18.083z" fill="#c7e554" data-original="#C7E554" class="" style="fill:#E3E9ED" data-old_color="#c7e554"/><path d="m64 37.75h-35.75v33.235a12 12 0 0 0 8.04 11.328l6.578 2.3a64.024 64.024 0 0 0 42.264 0l6.578-2.3a12 12 0 0 0 8.04-11.328v-33.235z" fill="#97ad40" data-original="#97AD40" class="" style="fill:#E3E9ED" data-old_color="#97ad40"/><path d="m34.25 68.75a1.749 1.749 0 0 1 -1.75-1.75v-8.918a1.75 1.75 0 1 1 3.5 0v8.918a1.749 1.749 0 0 1 -1.75 1.75z" fill="#c7e554" data-original="#C7E554" class="" style="fill:#E3E9ED" data-old_color="#c7e554"/><path d="m64 6.5-57.5 26.583 57.5 26.584 57.5-26.584z" fill="#c7e554" data-original="#C7E554" class="" style="fill:#E3E9ED" data-old_color="#c7e554"/><path d="m90.75 104.083a1.749 1.749 0 0 1 -1.75-1.75v-54.27l-25.808-13.427a1.751 1.751 0 0 1 1.616-3.106l26.75 13.917a1.752 1.752 0 0 1 .942 1.553v55.333a1.749 1.749 0 0 1 -1.75 1.75z" fill="#eaeaf0" data-original="#EAEAF0" class="" style="fill:#FFFFFF" data-old_color="#eaeaf0"/><circle cx="90.75" cy="102.333" fill="#b4b4b8" r="3" data-original="#B4B4B8" class="active-path" data-old_color="#b4b4b8" style="fill:#5F7D95"/></g></g> </svg>
