<svg height="512" viewBox="0 0 512 512" width="512" xmlns="http://www.w3.org/2000/svg"><g><path d="m376 48h-352a8 8 0 0 0 -8 8v440a8 8 0 0 0 8 8h352a8 8 0 0 0 8-8v-440a8 8 0 0 0 -8-8zm-8 440h-336v-16h336zm0-32h-336v-304h336zm0-320h-336v-72h336z"/><path d="m200 160c-79.4 0-144 64.6-144 144s64.6 144 144 144 144-64.6 144-144-64.6-144-144-144zm0 272a128 128 0 1 1 128-128 128.144 128.144 0 0 1 -128 128z"/><path d="m200 184a120 120 0 1 0 120 120 120.136 120.136 0 0 0 -120-120zm0 224a104 104 0 1 1 104-104 104.118 104.118 0 0 1 -104 104z"/><path d="m200 216a88.1 88.1 0 0 0 -88 88 8 8 0 0 0 16 0 72.081 72.081 0 0 1 72-72 8 8 0 0 0 0-16z"/><path d="m48 184h40a8 8 0 0 0 0-16h-40a8 8 0 0 0 0 16z"/><path d="m72 200a8 8 0 0 0 -8-8h-16a8 8 0 0 0 0 16h16a8 8 0 0 0 8-8z"/><path d="m320 128h32a8 8 0 0 0 8-8v-40a8 8 0 0 0 -8-8h-32a8 8 0 0 0 -8 8v40a8 8 0 0 0 8 8zm8-40h16v24h-16z"/><path d="m450.2 48.478a55.785 55.785 0 0 0 -37.768-16.37 8 8 0 0 0 -.518 15.992 39.992 39.992 0 0 1 38.586 37.1 8 8 0 0 0 7.972 7.431c.19 0 .383-.007.577-.021a8 8 0 0 0 7.41-8.549 55.965 55.965 0 0 0 -16.259-35.583z"/><path d="m490.476 83.646a79.989 79.989 0 0 0 -75.432-75.44 8 8 0 1 0 -.883 15.975 63.989 63.989 0 0 1 60.339 60.345 8 8 0 0 0 7.981 7.56c.148 0 .3 0 .448-.012a8 8 0 0 0 7.547-8.428z"/><path d="m415.805 58.874a24 24 0 1 0 16.969 40.971 24 24 0 0 0 -16.97-40.97zm5.657 29.656a8 8 0 1 1 2.344-5.657 7.947 7.947 0 0 1 -2.345 5.658z"/></g></svg>